# xmcd
#
# Track frame offsets: 
#        150
#        11483
#        27863
#        50098
#        65795
#        84375
#        96088
#        113980
#        131303
#        147113
#        170578
#        182805
#        197040
#        209695
#
# Disc length: 3030 seconds
#
# Revision: 4
# Processed by: cddbd v1.5.2PL0 Copyright (c) Steve Scherf et al.
# Submitted via: ExactAudioCopy v1.0b3
#
DISCID=c90bd40e
DTITLE=Ford Blues Band - The Ford Blues Band
DYEAR=1991
DGENRE=Blues
TTITLE0=Shuffle For Walter
TTITLE1=Parchman Farm
TTITLE2=Self Preservation
TTITLE3=Mojo Boogie
TTITLE4=Down In Mississippi
TTITLE5=Blues Are Back
TTITLE6=One Way Out
TTITLE7=Take Out Some Insurance
TTITLE8=Too Late
TTITLE9=Alabama March
TTITLE10=Crying For My Baby
TTITLE11=I Gotta Know
TTITLE12=Can't You See
TTITLE13=Cadillac Walk
EXTD=YEAR: 1989
EXTT0=
EXTT1=
EXTT2=
EXTT3=
EXTT4=
EXTT5=
EXTT6=
EXTT7=
EXTT8=
EXTT9=
EXTT10=
EXTT11=
EXTT12=
EXTT13=
PLAYORDER=
